<svg width="18" height="18" viewBox="0 0 18 18" fill="none" xmlns="http://www.w3.org/2000/svg">
<path d="M9 1.50073C13.143 1.50073 16.5 4.85848 16.5 9.00073C16.5 13.143 13.143 16.5007 9 16.5007C4.8585 16.5007 1.5 13.143 1.5 9.00073C1.5 4.85848 4.8585 1.50073 9 1.50073V1.50073ZM9 2.62573C7.30925 2.62573 5.68774 3.29738 4.49219 4.49293C3.29665 5.68847 2.625 7.30998 2.625 9.00073C2.625 10.6915 3.29665 12.313 4.49219 13.5085C5.68774 14.7041 7.30925 15.3757 9 15.3757C10.6908 15.3757 12.3123 14.7041 13.5078 13.5085C14.7034 12.313 15.375 10.6915 15.375 9.00073C15.375 7.30998 14.7034 5.68847 13.5078 4.49293C12.3123 3.29738 10.6908 2.62573 9 2.62573V2.62573ZM8.736 5.66548L8.79 5.60248C8.88529 5.50702 9.0117 5.44898 9.1462 5.43893C9.2807 5.42888 9.41434 5.46749 9.52275 5.54773L9.58575 5.60248L12.5858 8.60248C12.6812 8.69777 12.7393 8.82418 12.7493 8.95868C12.7594 9.09318 12.7207 9.22682 12.6405 9.33523L12.5865 9.39898L9.585 12.399C9.48463 12.4996 9.34988 12.5585 9.20785 12.5639C9.06581 12.5692 8.92701 12.5206 8.81937 12.4278C8.71173 12.335 8.64321 12.2048 8.62761 12.0635C8.612 11.9223 8.65046 11.7803 8.73525 11.6662L8.79 11.6032L10.8315 9.56248H5.8125C5.67657 9.56248 5.54524 9.51325 5.4428 9.42391C5.34036 9.33456 5.27374 9.21115 5.25525 9.07648L5.25 8.99998C5.25001 8.86405 5.29923 8.73273 5.38858 8.63028C5.47792 8.52784 5.60134 8.46122 5.736 8.44273L5.8125 8.43748H10.83L8.79 6.39748C8.69485 6.30215 8.63707 6.17583 8.62716 6.0415C8.61725 5.90717 8.65587 5.77375 8.736 5.66548L8.79 5.60248L8.736 5.66548V5.66548Z" fill="black"/>
</svg>
